<svg fill="none" height="36" viewBox="0 0 43 36" width="43" xmlns="http://www.w3.org/2000/svg"><path d="m23.3653 23.58-4.9087-4.5c3.3379-3.42 5.8904-7.56 7.2649-11.7h5.694v-3.78h-13.7443v-3.6h-3.9269v3.6h-13.7443v3.6h21.9909c-1.3745 3.42-3.5343 6.84-6.2831 9.72-1.7672-1.98-3.3379-3.96-4.516-6.12h-3.92696c1.37443 2.88 3.33786 5.76 5.89046 8.28l-10.01375 9 2.74886 2.52 9.81739-9 6.0867 5.58zm10.9954-9.18h-3.9269l-8.8356 21.6h3.9269l2.1598-5.4h9.2283l2.1599 5.4h3.9269zm-5.105 12.6 3.1416-7.74 3.1415 7.74z" fill="#fff"/></svg>