<svg fill="none" height="32" viewBox="0 0 93 32" width="93" xmlns="http://www.w3.org/2000/svg"><path d="m69.7583 1.71182c-.0997-.17208-.4827-.51212-1.1491-1.02004-.7242-.558338-1.1649-.7786553-1.3223-.6611093-.3621.2728503-.7504.5834573-1.1649.9318683-.4513.382031-.8055.701091-1.0626.957141-.4775.44916-.9078.85631-1.2908 1.22156-.7189.69257-1.3118 1.28658-1.7788 1.78193-.0315-.02521-.4434-.28129-1.2357-.7682-.7714-.47437-1.1623-.71989-1.1729-.73667-.1784.12167-.5509.46382-1.1176 1.02629-.5667.56678-.8501.87741-.8501.93194l2.5502 2.19128c.0053.00413.711.62967 2.1172 1.87637.0577.03365.1076.05042.1496.05042.2413-.32326.6113-.78286 1.1098-1.37898.7293-.86053 1.485-1.70224 2.2668-2.52498.5352-.56247 1.4115-1.40621 2.6289-2.53127.913-.84796 1.3538-1.29712 1.3223-1.34754z" fill="#2dd4bf"/><path d="m50.3797 18.2969c1.1112-.7356 2.1726-.9603 3.3355-.7548 1.7212.2939 2.9625 1.4982 3.0409 3.2383.0918 2.0667.0516 4.1392.0631 6.2097 0 .5359-.2735.8029-.809.801-.482 0-.9563 0-1.4478 0-.7267-.0135-.9333-.2171-.9371-.9604-.0096-1.7709 0-3.5418-.0115-5.3127-.0115-1.0622-.6024-1.6-1.6563-1.5789-1.0155.0212-1.5414.5263-1.5625 1.6096-.0306 1.6787-.0115 3.3574-.0153 5.0381 0 1.066-.1396 1.2062-1.1762 1.2081-2.1038 0-2.0407.1805-2.0349-2.0072.0095-3.4726 0-6.9472 0-10.4218 0-.5512-.0727-1.2638.5565-1.4213.6984-.1582 1.4239-.151 2.1191.0211.2544.0615.4781.7395.5068 1.1524.0765 1.0103.0287 2.013.0287 3.1788z" fill="#fff"/><path d="m28.8716 20.3537v5.1091c.6063 0 1.1724.0134 1.7385 0 .526-.0173.7325.2285.765.7414.0784 1.5366.0421 1.5942-1.4917 1.5942-1.7213 0-3.4426-.0154-5.1639 0-.6158 0-.9103-.2228-.8587-.849 0-.0691 0-.1383 0-.2074 0-1.2523 0-1.2523 1.2508-1.285.1549 0 .3098-.0249.5068-.0422v-5.0611c-.6063 0-1.1953-.0192-1.7825 0-.5393.0211-.7229-.2267-.742-.7414-.0593-1.6038-.0612-1.6134 1.5453-1.6134h1.0519c0-.557-.023-1.0353 0-1.5097.0746-1.31.809-2.1243 2.0196-2.497 1.4151-.4369 2.9283-.4369 4.3434 0 1.1685.3496 1.7805 1.3119 1.7212 2.5219-.021.3842-.1663.5417-.5431.5282-.4131-.0115-.8281-.023-1.2393 0-.5738.0365-.9792 0-1.0271-.7855-.0363-.6108-.6866-.5878-1.1609-.5666-.4743.0211-.9562.1133-.9926.7298-.0287.4802 0 .9604 0 1.5769h2.8076c1.5607 0 1.5473 0 1.5052 1.5846-.0153.5532-.2161.7856-.7841.7683-1.1342-.0249-2.2587.0039-3.4694.0039z" fill="#fff"/><path d="m40.0618 20.3535c0 1.5827-.0248 3.0732.0134 4.5617.0153.6012.4705.8586 1.2661.8567.6101 0 1.1035-.171 1.1934-.8663.0248-.3194.0324-.64.023-.9603-.0212-.1828-.0076-.3679.0401-.5455.3998-.8547 1.1877-.4706 1.8246-.5224.4724-.0365.8836.1651.9008.7241.0399.6401.0284 1.2824-.0344 1.9207-.0493.4975-.2446.9691-.5613 1.3549s-.7405.6683-1.2174.8117c-1.3333.4591-2.7724.5106-4.1349.1479-1.7691-.4418-2.5245-1.4367-2.557-3.2653-.0211-1.1255 0-2.253 0-3.3785v-.8394c-.6082 0-1.1475-.0134-1.6926 0-.459.0135-.6847-.192-.6885-.6472-.0134-1.8055-.1109-1.7287 1.5778-1.7056h.8033c0-.559 0-1.0757 0-1.5923.0172-1.0526.3194-1.358 1.3502-1.3791h.6885c.8262.0346 1.1475.3496 1.182 1.1908.0267.5494.0306 1.1006.0478 1.6519 0 .0153.0268.0326.1071.1248h3.2876c.7956 0 .9161.1268.9295.92 0 .1921-.0134.3688 0 .5513.0497.6473-.2218.9085-.8874.8854-1.1207-.0384-2.2434 0-3.4617 0z" fill="#fff"/><path d="m3.24939 16.4818v3.3247h2.19558c.64261 0 1.28713-.0288 1.92592.0173.81856.0596 1.28331.5954 1.25079 1.3445-.03251.7491-.50682 1.2235-1.35789 1.2312-1.30626.0135-2.61252 0-3.9991 0-.02104.2785-.05547.5186-.05738.7683v3.6494c-.01147.7414-.22759.9411-.95626.9603-.34234 0-.68851 0-1.03277 0-1.017464 0-1.21636747-.192-1.21828-1.1966 0-2.1845 0-4.369 0-6.5535 0-1.5634 0-3.1269 0-4.6904 0-1.0717.33278-1.4079 1.39423-1.4117h6.95587c.7937 0 .95627.1729.97157.9776v.6224c-.02486.7414-.21229.9353-.95627.9373-1.67346.0249-3.34692.0192-5.11601.0192z" fill="#fff"/><path d="m87.9343 25.3651c.6905-1.9208 1.8399-3.6821 1.6831-5.8352-.0233-.3679-.0188-.7371.0133-1.1044.0555-.7088.5738-.7856 1.1055-.7011.6483.1057 1.7213-.4629 1.8207.6223.1071 1.2562.1071 2.6506-.3347 3.7973-1.18 3.0597-2.6087 6.0253-3.9666 9.014-.3614.7951-1.2087 1.0429-1.9833.676-.742-.3495-1.004-1.1044-.6215-1.9207.3175-.6818.6847-1.3445 1.0557-2.0571-.8205-.1325-1.159-.6857-1.4363-1.3214-.4131-.9469-.8128-1.9035-1.291-2.8177-.7865-1.5433-1.1333-3.2748-1.0021-5.0035.0439-.7875.2161-.9853.9811-1.0007h1.1035c.8415 0 1.1265.2209 1.0347 1.0679-.2563 2.374.7803 4.387 1.6754 6.4479.0153.0346.0631.0557.1625.1364z" fill="#2dd4bf"/><path d="m72.4198 25.4262c0-1.3445 0-2.6179-.0096-3.9009-.0316-.1543-.1097-.2952-.2237-.4034-.1798-.2074-.3825-.3841-.5738-.5877-1.1475-1.1525-1.1245-1.6365.1052-2.6621.4992-.4149 1.0136-.4495 1.4841 0 .346.3652.6711.75.9735 1.1524 1.4879-1.7287 3.2417-1.817 5.0682-1.2754 1.6237.484 2.5494 2.4662 2.0254 4.0873-.0164.0683-.0442.1332-.0823.1921-.6139.7529-1.4478.3841-2.1822.3707-.6082 0-.6043-.5762-.6196-1.0449-.0383-1.2715-.985-1.9207-2.0656-1.3791-.2811.1441-.6139.5244-.6254.8087-.0612 1.5365-.0286 3.0731-.0286 4.6942.5737 0 1.0939.0135 1.6122 0 .5183-.0134.7937.1921.8167.7683.065 1.5366.0401 1.5769-1.509 1.5769-1.6728 0-3.3476 0-5.0242 0-.8224 0-.8855-.0749-.8951-.9181v-.0691c0-1.3138 0-1.3138 1.3024-1.3445.1052-.0346.2181-.0481.4514-.0654z" fill="#2dd4bf"/><path d="m62.295 16.4819c-.9563 0-1.8533-.0192-2.7407 0-.6483.0211-.9065-.267-.9295-.897-.0554-1.5731 0-1.6537 1.5396-1.6537h7.9868c.9199 0 1.0289.1171 1.0385 1.0314v.6204c.0286.6434-.2678.9162-.9142.8969-.8874-.0268-1.7749 0-2.7503 0v.897 9.1715c0 1.0736-.174 1.2408-1.2354 1.2446-1.9948 0-1.9948 0-1.9948-2.0091z" fill="#2dd4bf"/><g fill="#fff"><path d="m14.5715 25.4613v-5.403c-.6771 0-1.3388-.0192-1.9872 0-.5584.0192-.765-.2113-.7822-.7683-.0268-1.5808-.044-1.5808 1.5606-1.5808h3.1653c1.0614 0 1.2508.1767 1.2508 1.2274v5.6546.8662c.7516 0 1.4535.0192 2.1516 0 .5871-.0211.8606.2267.8224.8144-.0029.0461-.0029.0922 0 .1383.0153 1.3848.0153 1.3848-1.3388 1.3868h-6.8182c-.853 0-.9084-.0615-.918-.8913-.0134-1.4405-.0134-1.4405 1.4076-1.4405z"/><path d="m15.8777 16.7044h-.0689c-1.7786.0902-1.8035-.3842-1.6084-2.2069.0229-.2228.4533-.5359.7248-.5762.6601-.0615 1.3242-.0673 1.9852-.0173.4801.0192.7421.3322.7976.7951.0287.2737.0364.5492.0229.824-.0229.8605-.3098 1.1525-1.1666 1.1755-.2276.0058-.4571.0058-.6866.0058z"/><path d="m6.8715.0842285-2.40523 2.4068515-2.40523-2.4068515-2.06104 2.0624315 2.40523 2.40686-2.40523 2.40685 2.06104 2.06244 2.40523-2.40686 2.40523 2.40686 2.06104-2.06244-2.40523-2.40685 2.40523-2.40686z"/><path d="m50.8202 0-2.4052 2.40685-2.4052-2.40685-2.0611 2.06244 2.4053 2.40685-2.4053 2.40685 2.0611 2.06244 2.4052-2.40686 2.4052 2.40686 2.0611-2.06244-2.4053-2.40685 2.4053-2.40685z"/><path d="m21.9728 0-2.4052 2.40685-2.4052-2.40685-2.0611 2.06244 2.4052 2.40685-2.4052 2.40685 2.0611 2.06244 2.4052-2.40685 2.4052 2.40685 2.0611-2.06244-2.4053-2.40685 2.4053-2.40685z"/><path d="m37.1557 0-2.4052 2.40685-2.4053-2.40685-2.061 2.06244 2.4052 2.40685-2.4052 2.40685 2.061 2.06244 2.4053-2.40685 2.4052 2.40685 2.061-2.06244-2.4052-2.40685 2.4052-2.40685z"/></g></svg>